<svg xmlns="http://www.w3.org/2000/svg" xmlns:xlink="http://www.w3.org/1999/xlink" width="1500" zoomAndPan="magnify" viewBox="0 620 1500 280" height="280" preserveAspectRatio="xMidYMid meet" version="1.0"><defs><g/><clipPath id="caa83ac95d"><rect x="0" width="653" y="0" height="266"/></clipPath><clipPath id="6a996abd91"><rect x="0" width="616" y="0" height="210"/></clipPath></defs><g transform="matrix(1, 0, 0, 1, 92, 617)"><g clip-path="url(#caa83ac95d)"><g fill="#ffc94d" fill-opacity="1"><g transform="translate(0.524208, 208.377708)"><g><path d="M 86.621094 -141.0625 C 99.15625 -141.0625 110.476562 -138.304688 120.589844 -132.785156 C 130.925781 -127.152344 138.984375 -118.964844 144.773438 -108.230469 C 150.433594 -97.726562 153.265625 -85.261719 153.265625 -70.828125 L 153.265625 -11.964844 C 153.265625 -5.976562 151.230469 -0.949219 147.167969 3.113281 C 143.101562 7.179688 138.074219 9.214844 132.085938 9.214844 C 126.101562 9.214844 121.074219 7.179688 117.007812 3.113281 C 112.941406 -0.949219 110.910156 -5.976562 110.910156 -11.964844 L 110.910156 -70.828125 C 110.910156 -81.191406 108.367188 -88.796875 103.28125 -93.648438 C 98.074219 -98.617188 90.925781 -101.097656 81.835938 -101.097656 C 76.53125 -101.097656 71.75 -100.050781 67.496094 -97.957031 C 63.425781 -95.949219 60.277344 -93.292969 58.054688 -89.992188 C 55.964844 -86.878906 54.917969 -83.363281 54.917969 -79.445312 L 54.917969 -11.964844 C 54.917969 -6.039062 52.960938 -1.050781 49.050781 3.003906 C 45.050781 7.144531 39.949219 9.214844 33.738281 9.214844 C 27.753906 9.214844 22.726562 7.179688 18.660156 3.113281 C 14.59375 -0.949219 12.5625 -5.976562 12.5625 -11.964844 L 12.5625 -174.679688 C 12.5625 -180.890625 14.632812 -185.992188 18.773438 -189.988281 C 22.824219 -193.902344 27.8125 -195.859375 33.738281 -195.859375 C 39.886719 -195.859375 44.953125 -193.867188 48.9375 -189.878906 C 52.925781 -185.894531 54.917969 -180.828125 54.917969 -174.679688 L 54.917969 -116.054688 L 45.945312 -116.054688 L 39.597656 -122.402344 C 45.574219 -128.378906 52.648438 -132.992188 60.8125 -136.238281 C 68.898438 -139.453125 77.5 -141.0625 86.621094 -141.0625 Z M 86.621094 -123.113281 C 79.792969 -123.113281 73.398438 -121.929688 67.445312 -119.5625 C 61.574219 -117.226562 56.519531 -113.941406 52.289062 -109.710938 L 36.96875 -94.390625 L 36.96875 -174.679688 C 36.96875 -175.871094 36.730469 -176.707031 36.25 -177.1875 C 35.765625 -177.671875 34.929688 -177.910156 33.738281 -177.910156 C 32.648438 -177.910156 31.8125 -177.632812 31.238281 -177.078125 C 30.753906 -176.609375 30.507812 -175.808594 30.507812 -174.679688 L 30.507812 -11.964844 C 30.507812 -10.933594 30.789062 -10.136719 31.351562 -9.574219 C 31.910156 -9.015625 32.707031 -8.734375 33.738281 -8.734375 C 34.867188 -8.734375 35.667969 -8.976562 36.136719 -9.464844 C 36.691406 -10.039062 36.96875 -10.871094 36.96875 -11.964844 L 36.96875 -79.445312 C 36.96875 -87.011719 39.035156 -93.863281 43.164062 -100.003906 C 47.164062 -105.953125 52.628906 -110.636719 59.566406 -114.054688 C 66.320312 -117.382812 73.742188 -119.046875 81.835938 -119.046875 C 95.71875 -119.046875 106.996094 -114.910156 115.667969 -106.636719 C 124.460938 -98.246094 128.855469 -86.3125 128.855469 -70.828125 L 128.855469 -11.964844 C 128.855469 -10.933594 129.136719 -10.136719 129.699219 -9.574219 C 130.257812 -9.015625 131.054688 -8.734375 132.085938 -8.734375 C 133.117188 -8.734375 133.914062 -9.015625 134.476562 -9.574219 C 135.035156 -10.136719 135.316406 -10.933594 135.316406 -11.964844 L 135.316406 -70.828125 C 135.316406 -82.242188 133.203125 -91.867188 128.972656 -99.710938 C 124.871094 -107.324219 119.210938 -113.09375 111.996094 -117.03125 C 104.5625 -121.085938 96.105469 -123.113281 86.621094 -123.113281 Z M 86.621094 -123.113281 "/></g></g></g><g fill="#ffc94d" fill-opacity="1"><g transform="translate(163.956219, 208.377708)"><g><path d="M 80.878906 9.929688 C 66.546875 9.929688 53.671875 6.714844 42.257812 0.28125 C 30.734375 -6.210938 21.769531 -15.222656 15.367188 -26.75 C 9.03125 -38.15625 5.863281 -51.011719 5.863281 -65.324219 C 5.863281 -79.796875 9.03125 -92.734375 15.367188 -104.140625 C 21.769531 -115.667969 30.734375 -124.679688 42.257812 -131.171875 C 53.671875 -137.605469 66.546875 -140.820312 80.878906 -140.820312 C 95.0625 -140.820312 107.828125 -137.601562 119.171875 -131.15625 C 130.585938 -124.671875 139.53125 -115.683594 146.007812 -104.1875 C 152.441406 -92.769531 155.65625 -79.816406 155.65625 -65.324219 C 155.65625 -51.011719 152.488281 -38.15625 146.152344 -26.75 C 139.753906 -15.230469 130.839844 -6.226562 119.410156 0.265625 C 108.066406 6.707031 95.222656 9.929688 80.878906 9.929688 Z M 80.878906 -8.015625 C 92.0625 -8.015625 101.949219 -10.457031 110.546875 -15.339844 C 119.058594 -20.175781 125.695312 -26.882812 130.464844 -35.464844 C 135.296875 -44.160156 137.710938 -54.113281 137.710938 -65.324219 C 137.710938 -76.679688 135.265625 -86.695312 130.371094 -95.378906 C 125.523438 -103.984375 118.835938 -110.707031 110.308594 -115.550781 C 101.710938 -120.433594 91.902344 -122.875 80.878906 -122.875 C 69.6875 -122.875 59.75 -120.429688 51.066406 -115.535156 C 42.488281 -110.703125 35.816406 -104 31.054688 -95.425781 C 26.226562 -86.730469 23.808594 -76.695312 23.808594 -65.324219 C 23.808594 -54.113281 26.226562 -44.160156 31.054688 -35.464844 C 35.816406 -26.890625 42.488281 -20.1875 51.066406 -15.355469 C 59.75 -10.460938 69.6875 -8.015625 80.878906 -8.015625 Z M 80.878906 -29.550781 C 87.375 -29.550781 93.148438 -31.050781 98.199219 -34.042969 C 103.210938 -37.011719 107.117188 -41.140625 109.917969 -46.433594 C 112.8125 -51.898438 114.261719 -58.199219 114.261719 -65.324219 C 114.261719 -72.46875 112.804688 -78.820312 109.898438 -84.375 C 107.097656 -89.730469 103.199219 -93.886719 98.199219 -96.847656 C 93.148438 -99.84375 87.375 -101.339844 80.878906 -101.339844 C 74.382812 -101.339844 68.609375 -99.84375 63.558594 -96.847656 C 58.535156 -93.871094 54.582031 -89.691406 51.703125 -84.304688 C 48.742188 -78.765625 47.261719 -72.441406 47.261719 -65.324219 C 47.261719 -58.226562 48.734375 -51.953125 51.683594 -46.503906 C 54.5625 -41.179688 58.523438 -37.027344 63.558594 -34.042969 C 68.609375 -31.050781 74.382812 -29.550781 80.878906 -29.550781 Z M 80.878906 -11.605469 C 71.105469 -11.605469 62.28125 -13.9375 54.410156 -18.601562 C 46.523438 -23.273438 40.355469 -29.726562 35.898438 -37.964844 C 31.507812 -46.074219 29.3125 -55.195312 29.3125 -65.324219 C 29.3125 -75.441406 31.5 -84.585938 35.878906 -92.769531 C 40.335938 -101.101562 46.511719 -107.609375 54.410156 -112.289062 C 62.28125 -116.953125 71.105469 -119.285156 80.878906 -119.285156 C 90.65625 -119.285156 99.476562 -116.953125 107.347656 -112.289062 C 115.273438 -107.59375 121.421875 -101.0625 125.800781 -92.695312 C 130.070312 -84.535156 132.207031 -75.410156 132.207031 -65.324219 C 132.207031 -55.226562 130.066406 -46.128906 125.78125 -38.035156 C 121.402344 -29.765625 115.257812 -23.289062 107.347656 -18.601562 C 99.476562 -13.9375 90.65625 -11.605469 80.878906 -11.605469 Z M 80.878906 -11.605469 "/></g></g></g><g fill="#ffc94d" fill-opacity="1"><g transform="translate(325.473957, 208.377708)"><g><path d="M 86.621094 -141.0625 C 99.15625 -141.0625 110.476562 -138.304688 120.589844 -132.785156 C 130.925781 -127.152344 138.984375 -118.964844 144.773438 -108.230469 C 150.433594 -97.726562 153.265625 -85.261719 153.265625 -70.828125 L 153.265625 -11.964844 C 153.265625 -5.976562 151.230469 -0.949219 147.167969 3.113281 C 143.101562 7.179688 138.074219 9.214844 132.085938 9.214844 C 126.101562 9.214844 121.074219 7.179688 117.007812 3.113281 C 112.941406 -0.949219 110.910156 -5.976562 110.910156 -11.964844 L 110.910156 -70.828125 C 110.910156 -81.191406 108.367188 -88.796875 103.28125 -93.648438 C 98.074219 -98.617188 90.925781 -101.097656 81.835938 -101.097656 C 76.53125 -101.097656 71.75 -100.050781 67.496094 -97.957031 C 63.425781 -95.949219 60.277344 -93.292969 58.054688 -89.992188 C 55.964844 -86.878906 54.917969 -83.363281 54.917969 -79.445312 L 54.917969 -11.964844 C 54.917969 -6.039062 52.960938 -1.050781 49.050781 3.003906 C 45.050781 7.144531 39.949219 9.214844 33.738281 9.214844 C 27.753906 9.214844 22.726562 7.179688 18.660156 3.113281 C 14.59375 -0.949219 12.5625 -5.976562 12.5625 -11.964844 L 12.5625 -174.679688 C 12.5625 -180.890625 14.632812 -185.992188 18.773438 -189.988281 C 22.824219 -193.902344 27.8125 -195.859375 33.738281 -195.859375 C 39.886719 -195.859375 44.953125 -193.867188 48.9375 -189.878906 C 52.925781 -185.894531 54.917969 -180.828125 54.917969 -174.679688 L 54.917969 -116.054688 L 45.945312 -116.054688 L 39.597656 -122.402344 C 45.574219 -128.378906 52.648438 -132.992188 60.8125 -136.238281 C 68.898438 -139.453125 77.5 -141.0625 86.621094 -141.0625 Z M 86.621094 -123.113281 C 79.792969 -123.113281 73.398438 -121.929688 67.445312 -119.5625 C 61.574219 -117.226562 56.519531 -113.941406 52.289062 -109.710938 L 36.96875 -94.390625 L 36.96875 -174.679688 C 36.96875 -175.871094 36.730469 -176.707031 36.25 -177.1875 C 35.765625 -177.671875 34.929688 -177.910156 33.738281 -177.910156 C 32.648438 -177.910156 31.8125 -177.632812 31.238281 -177.078125 C 30.753906 -176.609375 30.507812 -175.808594 30.507812 -174.679688 L 30.507812 -11.964844 C 30.507812 -10.933594 30.789062 -10.136719 31.351562 -9.574219 C 31.910156 -9.015625 32.707031 -8.734375 33.738281 -8.734375 C 34.867188 -8.734375 35.667969 -8.976562 36.136719 -9.464844 C 36.691406 -10.039062 36.96875 -10.871094 36.96875 -11.964844 L 36.96875 -79.445312 C 36.96875 -87.011719 39.035156 -93.863281 43.164062 -100.003906 C 47.164062 -105.953125 52.628906 -110.636719 59.566406 -114.054688 C 66.320312 -117.382812 73.742188 -119.046875 81.835938 -119.046875 C 95.71875 -119.046875 106.996094 -114.910156 115.667969 -106.636719 C 124.460938 -98.246094 128.855469 -86.3125 128.855469 -70.828125 L 128.855469 -11.964844 C 128.855469 -10.933594 129.136719 -10.136719 129.699219 -9.574219 C 130.257812 -9.015625 131.054688 -8.734375 132.085938 -8.734375 C 133.117188 -8.734375 133.914062 -9.015625 134.476562 -9.574219 C 135.035156 -10.136719 135.316406 -10.933594 135.316406 -11.964844 L 135.316406 -70.828125 C 135.316406 -82.242188 133.203125 -91.867188 128.972656 -99.710938 C 124.871094 -107.324219 119.210938 -113.09375 111.996094 -117.03125 C 104.5625 -121.085938 96.105469 -123.113281 86.621094 -123.113281 Z M 86.621094 -123.113281 "/></g></g></g><g fill="#ffc94d" fill-opacity="1"><g transform="translate(488.905996, 208.377708)"><g><path d="M 80.878906 9.929688 C 66.546875 9.929688 53.671875 6.714844 42.257812 0.28125 C 30.734375 -6.210938 21.769531 -15.222656 15.367188 -26.75 C 9.03125 -38.15625 5.863281 -51.011719 5.863281 -65.324219 C 5.863281 -79.796875 9.03125 -92.734375 15.367188 -104.140625 C 21.769531 -115.667969 30.734375 -124.679688 42.257812 -131.171875 C 53.671875 -137.605469 66.546875 -140.820312 80.878906 -140.820312 C 95.0625 -140.820312 107.828125 -137.601562 119.171875 -131.15625 C 130.585938 -124.671875 139.53125 -115.683594 146.007812 -104.1875 C 152.441406 -92.769531 155.65625 -79.816406 155.65625 -65.324219 C 155.65625 -51.011719 152.488281 -38.15625 146.152344 -26.75 C 139.753906 -15.230469 130.839844 -6.226562 119.410156 0.265625 C 108.066406 6.707031 95.222656 9.929688 80.878906 9.929688 Z M 80.878906 -8.015625 C 92.0625 -8.015625 101.949219 -10.457031 110.546875 -15.339844 C 119.058594 -20.175781 125.695312 -26.882812 130.464844 -35.464844 C 135.296875 -44.160156 137.710938 -54.113281 137.710938 -65.324219 C 137.710938 -76.679688 135.265625 -86.695312 130.371094 -95.378906 C 125.523438 -103.984375 118.835938 -110.707031 110.308594 -115.550781 C 101.710938 -120.433594 91.902344 -122.875 80.878906 -122.875 C 69.6875 -122.875 59.75 -120.429688 51.066406 -115.535156 C 42.488281 -110.703125 35.816406 -104 31.054688 -95.425781 C 26.226562 -86.730469 23.808594 -76.695312 23.808594 -65.324219 C 23.808594 -54.113281 26.226562 -44.160156 31.054688 -35.464844 C 35.816406 -26.890625 42.488281 -20.1875 51.066406 -15.355469 C 59.75 -10.460938 69.6875 -8.015625 80.878906 -8.015625 Z M 80.878906 -29.550781 C 87.375 -29.550781 93.148438 -31.050781 98.199219 -34.042969 C 103.210938 -37.011719 107.117188 -41.140625 109.917969 -46.433594 C 112.8125 -51.898438 114.261719 -58.199219 114.261719 -65.324219 C 114.261719 -72.46875 112.804688 -78.820312 109.898438 -84.375 C 107.097656 -89.730469 103.199219 -93.886719 98.199219 -96.847656 C 93.148438 -99.84375 87.375 -101.339844 80.878906 -101.339844 C 74.382812 -101.339844 68.609375 -99.84375 63.558594 -96.847656 C 58.535156 -93.871094 54.582031 -89.691406 51.703125 -84.304688 C 48.742188 -78.765625 47.261719 -72.441406 47.261719 -65.324219 C 47.261719 -58.226562 48.734375 -51.953125 51.683594 -46.503906 C 54.5625 -41.179688 58.523438 -37.027344 63.558594 -34.042969 C 68.609375 -31.050781 74.382812 -29.550781 80.878906 -29.550781 Z M 80.878906 -11.605469 C 71.105469 -11.605469 62.28125 -13.9375 54.410156 -18.601562 C 46.523438 -23.273438 40.355469 -29.726562 35.898438 -37.964844 C 31.507812 -46.074219 29.3125 -55.195312 29.3125 -65.324219 C 29.3125 -75.441406 31.5 -84.585938 35.878906 -92.769531 C 40.335938 -101.101562 46.511719 -107.609375 54.410156 -112.289062 C 62.28125 -116.953125 71.105469 -119.285156 80.878906 -119.285156 C 90.65625 -119.285156 99.476562 -116.953125 107.347656 -112.289062 C 115.273438 -107.59375 121.421875 -101.0625 125.800781 -92.695312 C 130.070312 -84.535156 132.207031 -75.410156 132.207031 -65.324219 C 132.207031 -55.226562 130.066406 -46.128906 125.78125 -38.035156 C 121.402344 -29.765625 115.257812 -23.289062 107.347656 -18.601562 C 99.476562 -13.9375 90.65625 -11.605469 80.878906 -11.605469 Z M 80.878906 -11.605469 "/></g></g></g><g fill="#ffc94d" fill-opacity="1"><g transform="translate(0.524208, 208.377708)"><g><path d="M 86.625 -132.078125 C 97.625 -132.078125 107.507812 -129.679688 116.28125 -124.890625 C 125.0625 -120.109375 131.921875 -113.128906 136.859375 -103.953125 C 141.804688 -94.785156 144.28125 -83.742188 144.28125 -70.828125 L 144.28125 -11.96875 C 144.28125 -8.457031 143.125 -5.546875 140.8125 -3.234375 C 138.5 -0.921875 135.585938 0.234375 132.078125 0.234375 C 128.566406 0.234375 125.65625 -0.921875 123.34375 -3.234375 C 121.03125 -5.546875 119.875 -8.457031 119.875 -11.96875 L 119.875 -70.828125 C 119.875 -83.742188 116.40625 -93.507812 109.46875 -100.125 C 102.53125 -106.75 93.316406 -110.0625 81.828125 -110.0625 C 75.128906 -110.0625 69.03125 -108.707031 63.53125 -106 C 58.03125 -103.289062 53.722656 -99.625 50.609375 -95 C 47.492188 -90.375 45.9375 -85.1875 45.9375 -79.4375 L 45.9375 -11.96875 C 45.9375 -8.457031 44.816406 -5.546875 42.578125 -3.234375 C 40.347656 -0.921875 37.398438 0.234375 33.734375 0.234375 C 30.222656 0.234375 27.3125 -0.921875 25 -3.234375 C 22.6875 -5.546875 21.53125 -8.457031 21.53125 -11.96875 L 21.53125 -174.671875 C 21.53125 -178.335938 22.6875 -181.285156 25 -183.515625 C 27.3125 -185.753906 30.222656 -186.875 33.734375 -186.875 C 37.398438 -186.875 40.347656 -185.753906 42.578125 -183.515625 C 44.816406 -181.285156 45.9375 -178.335938 45.9375 -174.671875 L 45.9375 -116.046875 C 51.039062 -121.148438 57.101562 -125.097656 64.125 -127.890625 C 71.144531 -130.679688 78.644531 -132.078125 86.625 -132.078125 Z M 86.625 -132.078125 "/></g></g></g><g fill="#ffc94d" fill-opacity="1"><g transform="translate(163.956219, 208.377708)"><g><path d="M 80.875 0.953125 C 68.113281 0.953125 56.707031 -1.875 46.65625 -7.53125 C 36.601562 -13.195312 28.785156 -21.054688 23.203125 -31.109375 C 17.617188 -41.160156 14.828125 -52.566406 14.828125 -65.328125 C 14.828125 -78.242188 17.617188 -89.726562 23.203125 -99.78125 C 28.785156 -109.832031 36.601562 -117.6875 46.65625 -123.34375 C 56.707031 -129.007812 68.113281 -131.84375 80.875 -131.84375 C 93.476562 -131.84375 104.765625 -129.007812 114.734375 -123.34375 C 124.703125 -117.6875 132.515625 -109.832031 138.171875 -99.78125 C 143.835938 -89.726562 146.671875 -78.242188 146.671875 -65.328125 C 146.671875 -52.566406 143.878906 -41.160156 138.296875 -31.109375 C 132.710938 -21.054688 124.9375 -13.195312 114.96875 -7.53125 C 105 -1.875 93.632812 0.953125 80.875 0.953125 Z M 80.875 -20.578125 C 89.007812 -20.578125 96.304688 -22.488281 102.765625 -26.3125 C 109.234375 -30.144531 114.257812 -35.453125 117.84375 -42.234375 C 121.4375 -49.015625 123.234375 -56.710938 123.234375 -65.328125 C 123.234375 -73.941406 121.4375 -81.675781 117.84375 -88.53125 C 114.257812 -95.394531 109.234375 -100.738281 102.765625 -104.5625 C 96.304688 -108.394531 89.007812 -110.3125 80.875 -110.3125 C 72.738281 -110.3125 65.441406 -108.394531 58.984375 -104.5625 C 52.523438 -100.738281 47.457031 -95.394531 43.78125 -88.53125 C 40.113281 -81.675781 38.28125 -73.941406 38.28125 -65.328125 C 38.28125 -56.710938 40.113281 -49.015625 43.78125 -42.234375 C 47.457031 -35.453125 52.523438 -30.144531 58.984375 -26.3125 C 65.441406 -22.488281 72.738281 -20.578125 80.875 -20.578125 Z M 80.875 -20.578125 "/></g></g></g><g fill="#ffc94d" fill-opacity="1"><g transform="translate(325.473957, 208.377708)"><g><path d="M 86.625 -132.078125 C 97.625 -132.078125 107.507812 -129.679688 116.28125 -124.890625 C 125.0625 -120.109375 131.921875 -113.128906 136.859375 -103.953125 C 141.804688 -94.785156 144.28125 -83.742188 144.28125 -70.828125 L 144.28125 -11.96875 C 144.28125 -8.457031 143.125 -5.546875 140.8125 -3.234375 C 138.5 -0.921875 135.585938 0.234375 132.078125 0.234375 C 128.566406 0.234375 125.65625 -0.921875 123.34375 -3.234375 C 121.03125 -5.546875 119.875 -8.457031 119.875 -11.96875 L 119.875 -70.828125 C 119.875 -83.742188 116.40625 -93.507812 109.46875 -100.125 C 102.53125 -106.75 93.316406 -110.0625 81.828125 -110.0625 C 75.128906 -110.0625 69.03125 -108.707031 63.53125 -106 C 58.03125 -103.289062 53.722656 -99.625 50.609375 -95 C 47.492188 -90.375 45.9375 -85.1875 45.9375 -79.4375 L 45.9375 -11.96875 C 45.9375 -8.457031 44.816406 -5.546875 42.578125 -3.234375 C 40.347656 -0.921875 37.398438 0.234375 33.734375 0.234375 C 30.222656 0.234375 27.3125 -0.921875 25 -3.234375 C 22.6875 -5.546875 21.53125 -8.457031 21.53125 -11.96875 L 21.53125 -174.671875 C 21.53125 -178.335938 22.6875 -181.285156 25 -183.515625 C 27.3125 -185.753906 30.222656 -186.875 33.734375 -186.875 C 37.398438 -186.875 40.347656 -185.753906 42.578125 -183.515625 C 44.816406 -181.285156 45.9375 -178.335938 45.9375 -174.671875 L 45.9375 -116.046875 C 51.039062 -121.148438 57.101562 -125.097656 64.125 -127.890625 C 71.144531 -130.679688 78.644531 -132.078125 86.625 -132.078125 Z M 86.625 -132.078125 "/></g></g></g><g fill="#ffc94d" fill-opacity="1"><g transform="translate(488.905996, 208.377708)"><g><path d="M 80.875 0.953125 C 68.113281 0.953125 56.707031 -1.875 46.65625 -7.53125 C 36.601562 -13.195312 28.785156 -21.054688 23.203125 -31.109375 C 17.617188 -41.160156 14.828125 -52.566406 14.828125 -65.328125 C 14.828125 -78.242188 17.617188 -89.726562 23.203125 -99.78125 C 28.785156 -109.832031 36.601562 -117.6875 46.65625 -123.34375 C 56.707031 -129.007812 68.113281 -131.84375 80.875 -131.84375 C 93.476562 -131.84375 104.765625 -129.007812 114.734375 -123.34375 C 124.703125 -117.6875 132.515625 -109.832031 138.171875 -99.78125 C 143.835938 -89.726562 146.671875 -78.242188 146.671875 -65.328125 C 146.671875 -52.566406 143.878906 -41.160156 138.296875 -31.109375 C 132.710938 -21.054688 124.9375 -13.195312 114.96875 -7.53125 C 105 -1.875 93.632812 0.953125 80.875 0.953125 Z M 80.875 -20.578125 C 89.007812 -20.578125 96.304688 -22.488281 102.765625 -26.3125 C 109.234375 -30.144531 114.257812 -35.453125 117.84375 -42.234375 C 121.4375 -49.015625 123.234375 -56.710938 123.234375 -65.328125 C 123.234375 -73.941406 121.4375 -81.675781 117.84375 -88.53125 C 114.257812 -95.394531 109.234375 -100.738281 102.765625 -104.5625 C 96.304688 -108.394531 89.007812 -110.3125 80.875 -110.3125 C 72.738281 -110.3125 65.441406 -108.394531 58.984375 -104.5625 C 52.523438 -100.738281 47.457031 -95.394531 43.78125 -88.53125 C 40.113281 -81.675781 38.28125 -73.941406 38.28125 -65.328125 C 38.28125 -56.710938 40.113281 -49.015625 43.78125 -42.234375 C 47.457031 -35.453125 52.523438 -30.144531 58.984375 -26.3125 C 65.441406 -22.488281 72.738281 -20.578125 80.875 -20.578125 Z M 80.875 -20.578125 "/></g></g></g></g></g><g transform="matrix(1, 0, 0, 1, 793, 665)"><g clip-path="url(#6a996abd91)"><g fill="#bfa98e" fill-opacity="1"><g transform="translate(0.207992, 163.990909)"><g><path d="M 52.449219 7.933594 C 43.902344 7.933594 35.691406 6.480469 27.816406 3.582031 C 19.667969 0.578125 13.035156 -3.699219 7.917969 -9.257812 L 7.800781 -9.382812 L 7.6875 -9.519531 C 5.363281 -12.308594 4.199219 -15.234375 4.199219 -18.292969 C 4.199219 -22.628906 6.058594 -26.304688 9.773438 -29.324219 L 9.878906 -29.410156 L 9.984375 -29.492188 C 12.722656 -31.542969 15.679688 -32.570312 18.851562 -32.570312 C 23.113281 -32.570312 26.6875 -30.882812 29.578125 -27.511719 C 31.792969 -24.933594 34.796875 -22.917969 38.601562 -21.476562 C 42.714844 -19.914062 47.332031 -19.132812 52.449219 -19.132812 C 59.710938 -19.132812 64.925781 -20.214844 68.089844 -22.382812 C 70.480469 -24.023438 71.707031 -26.078125 71.769531 -28.550781 L 78.765625 -28.371094 L 71.765625 -28.371094 C 71.765625 -30.390625 70.601562 -32.199219 68.273438 -33.796875 C 64.789062 -36.1875 58.839844 -38.046875 50.421875 -39.375 C 36.976562 -41.570312 26.75 -45.519531 19.75 -51.222656 C 11.996094 -57.535156 8.121094 -65.289062 8.121094 -74.472656 C 8.121094 -80.117188 9.246094 -85.1875 11.496094 -89.6875 C 13.773438 -94.25 17.148438 -98.113281 21.621094 -101.277344 C 29.863281 -107.113281 40.015625 -110.03125 52.074219 -110.03125 C 61.308594 -110.03125 69.4375 -108.417969 76.460938 -105.191406 C 83.632812 -101.898438 89.441406 -97.289062 93.886719 -91.363281 L 94.078125 -91.109375 L 94.246094 -90.832031 C 95.933594 -88.089844 96.777344 -85.4375 96.777344 -82.871094 C 96.777344 -80.535156 96.203125 -78.398438 95.054688 -76.457031 C 93.976562 -74.640625 92.460938 -73.121094 90.5 -71.898438 L 86.792969 -77.832031 L 90.859375 -72.136719 C 88.773438 -70.644531 86.234375 -69.898438 83.246094 -69.898438 C 78.605469 -69.898438 74.722656 -71.574219 71.597656 -74.921875 L 71.519531 -75.003906 L 71.445312 -75.089844 C 66.742188 -80.464844 60.160156 -83.152344 51.703125 -83.152344 C 46.296875 -83.152344 42.136719 -82.15625 39.21875 -80.167969 C 37.152344 -78.757812 36.117188 -77.171875 36.117188 -75.40625 C 36.117188 -74.34375 36.320312 -73.4375 36.726562 -72.683594 C 37.160156 -71.878906 37.882812 -71.125 38.890625 -70.425781 C 41.886719 -68.351562 47.777344 -66.589844 56.570312 -65.140625 C 71.214844 -62.679688 81.894531 -58.488281 88.617188 -52.570312 C 95.925781 -46.136719 99.578125 -38.132812 99.578125 -28.558594 C 99.578125 -21.253906 97.386719 -14.738281 93.007812 -9.003906 C 88.816406 -3.515625 83.082031 0.710938 75.8125 3.679688 C 68.867188 6.515625 61.078125 7.933594 52.449219 7.933594 Z M 52.449219 -6.066406 C 59.246094 -6.066406 65.273438 -7.136719 70.523438 -9.28125 C 75.445312 -11.289062 79.230469 -14.03125 81.882812 -17.5 C 84.347656 -20.726562 85.578125 -24.410156 85.578125 -28.558594 C 85.578125 -33.914062 83.507812 -38.417969 79.367188 -42.0625 C 74.640625 -46.222656 66.285156 -49.3125 54.296875 -51.328125 C 43.429688 -53.117188 35.636719 -55.648438 30.914062 -58.921875 C 28.066406 -60.898438 25.898438 -63.269531 24.402344 -66.042969 C 22.878906 -68.867188 22.117188 -71.988281 22.117188 -75.40625 C 22.117188 -78.785156 22.949219 -81.898438 24.613281 -84.746094 C 26.171875 -87.414062 28.410156 -89.742188 31.332031 -91.734375 C 36.628906 -95.347656 43.417969 -97.152344 51.703125 -97.152344 C 64.394531 -97.152344 74.488281 -92.871094 81.980469 -84.308594 L 76.714844 -79.699219 L 81.832031 -84.476562 C 82.1875 -84.089844 82.660156 -83.898438 83.246094 -83.898438 C 83.347656 -83.898438 83.433594 -83.902344 83.5 -83.910156 L 83.472656 -83.902344 C 83.234375 -83.839844 82.984375 -83.714844 82.722656 -83.527344 L 82.898438 -83.652344 L 83.082031 -83.769531 C 83.152344 -83.8125 83.191406 -83.839844 83.203125 -83.847656 C 83.136719 -83.785156 83.074219 -83.703125 83.011719 -83.59375 C 82.855469 -83.335938 82.777344 -83.09375 82.777344 -82.871094 C 82.777344 -82.753906 82.789062 -82.648438 82.804688 -82.5625 L 82.792969 -82.578125 C 82.710938 -82.816406 82.554688 -83.121094 82.324219 -83.496094 L 88.285156 -87.164062 L 82.6875 -82.964844 C 79.664062 -86.996094 75.640625 -90.164062 70.621094 -92.46875 C 65.449219 -94.84375 59.269531 -96.03125 52.074219 -96.03125 C 42.984375 -96.03125 35.527344 -93.972656 29.707031 -89.851562 C 27.148438 -88.039062 25.25 -85.898438 24.015625 -83.429688 C 22.75 -80.898438 22.117188 -77.914062 22.117188 -74.472656 C 22.117188 -69.722656 24.277344 -65.589844 28.589844 -62.074219 C 33.660156 -57.945312 41.664062 -54.988281 52.605469 -53.203125 C 63.105469 -51.546875 70.96875 -48.925781 76.191406 -45.34375 C 79.234375 -43.257812 81.5625 -40.828125 83.179688 -38.058594 C 84.902344 -35.101562 85.765625 -31.871094 85.765625 -28.371094 L 85.765625 -28.28125 L 85.761719 -28.191406 C 85.578125 -20.957031 82.324219 -15.171875 76.003906 -10.839844 C 70.457031 -7.035156 62.605469 -5.132812 52.449219 -5.132812 C 45.621094 -5.132812 39.347656 -6.21875 33.632812 -8.386719 C 27.605469 -10.675781 22.710938 -14.015625 18.949219 -18.402344 C 18.871094 -18.496094 18.800781 -18.566406 18.738281 -18.617188 L 18.75 -18.613281 C 18.808594 -18.585938 18.84375 -18.570312 18.851562 -18.570312 L 18.84375 -18.566406 C 18.722656 -18.523438 18.570312 -18.429688 18.386719 -18.292969 L 14.183594 -23.890625 L 18.597656 -18.457031 C 18.335938 -18.246094 18.175781 -18.085938 18.121094 -17.984375 C 18.171875 -18.082031 18.199219 -18.183594 18.199219 -18.292969 C 18.199219 -18.578125 18.160156 -18.808594 18.085938 -18.984375 C 18.128906 -18.878906 18.25 -18.710938 18.441406 -18.480469 L 13.066406 -14 L 18.214844 -18.742188 C 21.804688 -14.839844 26.621094 -11.777344 32.65625 -9.554688 C 38.96875 -7.230469 45.566406 -6.066406 52.449219 -6.066406 Z M 52.449219 -6.066406 "/></g></g></g><g fill="#bfa98e" fill-opacity="1"><g transform="translate(100.812373, 163.990909)"><g><path d="M 61.78125 -21.371094 C 65.835938 -21.371094 69.179688 -19.921875 71.8125 -17.027344 C 74.269531 -14.324219 75.5 -11.011719 75.5 -7.09375 C 75.5 -3.050781 73.996094 0.351562 70.992188 3.105469 C 68.160156 5.703125 64.714844 7 60.660156 7 L 56.742188 7 C 48.839844 7 41.71875 5.074219 35.378906 1.222656 C 29.070312 -2.605469 24.152344 -7.785156 20.625 -14.3125 C 17.140625 -20.761719 15.398438 -28 15.398438 -36.023438 L 15.398438 -85.859375 L 22.398438 -85.859375 L 22.398438 -78.859375 L 10.265625 -78.859375 C 6.34375 -78.859375 3.105469 -80.132812 0.558594 -82.683594 C -1.992188 -85.230469 -3.265625 -88.34375 -3.265625 -92.019531 C -3.265625 -95.816406 -1.992188 -98.992188 0.558594 -101.539062 C 3.105469 -104.089844 6.34375 -105.363281 10.265625 -105.363281 L 22.398438 -105.363281 L 22.398438 -98.363281 L 15.398438 -98.363281 L 15.398438 -127.296875 C 15.398438 -131.28125 16.699219 -134.632812 19.292969 -137.355469 C 21.980469 -140.167969 25.378906 -141.574219 29.492188 -141.574219 C 33.539062 -141.574219 36.929688 -140.207031 39.667969 -137.472656 C 42.402344 -134.734375 43.769531 -131.34375 43.769531 -127.296875 L 43.769531 -98.363281 L 36.769531 -98.363281 L 36.769531 -105.363281 L 57.863281 -105.363281 C 61.785156 -105.363281 65.023438 -104.089844 67.570312 -101.539062 C 70.121094 -98.992188 71.394531 -95.816406 71.394531 -92.019531 C 71.394531 -88.34375 70.121094 -85.230469 67.570312 -82.683594 C 65.023438 -80.132812 61.785156 -78.859375 57.863281 -78.859375 L 36.769531 -78.859375 L 36.769531 -85.859375 L 43.769531 -85.859375 L 43.769531 -36.023438 C 43.769531 -31.5 45.015625 -27.890625 47.511719 -25.1875 C 49.859375 -22.644531 52.9375 -21.371094 56.742188 -21.371094 Z M 61.78125 -7.371094 L 56.742188 -7.371094 C 48.851562 -7.371094 42.34375 -10.144531 37.226562 -15.691406 C 32.253906 -21.074219 29.769531 -27.851562 29.769531 -36.023438 L 29.769531 -92.859375 L 57.863281 -92.859375 C 57.976562 -92.859375 58.070312 -92.863281 58.136719 -92.875 L 58.101562 -92.859375 C 57.941406 -92.800781 57.800781 -92.707031 57.671875 -92.582031 C 57.488281 -92.398438 57.394531 -92.210938 57.394531 -92.019531 L 57.425781 -92.03125 C 57.484375 -91.875 57.566406 -91.746094 57.671875 -91.640625 C 57.800781 -91.515625 57.941406 -91.421875 58.101562 -91.363281 L 58.136719 -91.347656 C 58.070312 -91.359375 57.976562 -91.363281 57.863281 -91.363281 L 29.769531 -91.363281 L 29.769531 -127.296875 C 29.769531 -127.46875 29.761719 -127.582031 29.742188 -127.628906 C 29.753906 -127.59375 29.765625 -127.574219 29.765625 -127.570312 C 29.769531 -127.570312 29.789062 -127.558594 29.824219 -127.546875 C 29.777344 -127.566406 29.664062 -127.574219 29.492188 -127.574219 C 29.375 -127.574219 29.28125 -127.570312 29.210938 -127.554688 L 29.21875 -127.5625 C 29.308594 -127.597656 29.375 -127.640625 29.421875 -127.6875 C 29.425781 -127.695312 29.433594 -127.707031 29.441406 -127.730469 C 29.414062 -127.652344 29.398438 -127.507812 29.398438 -127.296875 L 29.398438 -91.363281 L 10.265625 -91.363281 C 10.152344 -91.363281 10.058594 -91.359375 9.988281 -91.347656 L 10.027344 -91.363281 C 10.183594 -91.421875 10.328125 -91.515625 10.457031 -91.640625 C 10.558594 -91.746094 10.640625 -91.875 10.703125 -92.03125 L 10.734375 -92.019531 C 10.734375 -92.210938 10.640625 -92.398438 10.457031 -92.582031 C 10.328125 -92.707031 10.183594 -92.800781 10.027344 -92.859375 L 9.988281 -92.875 C 10.058594 -92.863281 10.152344 -92.859375 10.265625 -92.859375 L 29.398438 -92.859375 L 29.398438 -36.023438 C 29.398438 -30.359375 30.578125 -25.339844 32.941406 -20.964844 C 35.265625 -16.667969 38.5 -13.257812 42.640625 -10.742188 C 46.753906 -8.246094 51.453125 -7 56.742188 -7 L 60.660156 -7 C 61.085938 -7 61.375 -7.070312 61.53125 -7.210938 C 61.511719 -7.195312 61.5 -7.15625 61.5 -7.09375 C 61.5 -7.34375 61.480469 -7.523438 61.441406 -7.632812 C 61.445312 -7.625 61.449219 -7.617188 61.453125 -7.609375 C 61.523438 -7.535156 61.625 -7.46875 61.761719 -7.414062 Z M 61.78125 -7.371094 "/></g></g></g><g fill="#bfa98e" fill-opacity="1"><g transform="translate(175.845713, 163.990909)"><g><path d="M 102.285156 -109.097656 C 106.269531 -109.097656 109.621094 -107.796875 112.34375 -105.199219 C 115.15625 -102.515625 116.5625 -99.117188 116.5625 -95.003906 L 116.5625 -7.28125 C 116.5625 -3.230469 115.195312 0.160156 112.460938 2.894531 C 109.722656 5.632812 106.332031 7 102.285156 7 C 98.171875 7 94.773438 5.59375 92.089844 2.78125 C 89.492188 0.0585938 88.191406 -3.292969 88.191406 -7.28125 L 88.191406 -13.625 L 95.191406 -13.625 L 100.414062 -8.964844 C 95.644531 -3.617188 89.875 0.570312 83.113281 3.589844 C 76.359375 6.609375 69.058594 8.121094 61.222656 8.121094 C 51.222656 8.121094 42.199219 5.980469 34.140625 1.703125 C 25.890625 -2.675781 19.441406 -9.046875 14.789062 -17.40625 C 10.21875 -25.621094 7.933594 -35.308594 7.933594 -46.476562 L 7.933594 -95.003906 C 7.933594 -98.929688 9.300781 -102.257812 12.035156 -104.992188 C 14.769531 -107.730469 18.101562 -109.097656 22.023438 -109.097656 C 26.074219 -109.097656 29.464844 -107.730469 32.199219 -104.992188 C 34.9375 -102.257812 36.304688 -98.929688 36.304688 -95.003906 L 36.304688 -46.476562 C 36.304688 -37.421875 38.648438 -30.691406 43.335938 -26.285156 C 48.148438 -21.765625 54.609375 -19.503906 62.714844 -19.503906 C 67.746094 -19.503906 72.242188 -20.457031 76.199219 -22.359375 C 79.992188 -24.183594 82.96875 -26.667969 85.128906 -29.8125 C 87.171875 -32.789062 88.191406 -36.101562 88.191406 -39.757812 L 88.191406 -95.003906 C 88.191406 -99.054688 89.527344 -102.414062 92.203125 -105.085938 C 94.875 -107.761719 98.234375 -109.097656 102.285156 -109.097656 Z M 102.285156 -95.097656 C 102.085938 -95.097656 101.960938 -95.089844 101.910156 -95.070312 C 101.984375 -95.097656 102.050781 -95.136719 102.101562 -95.1875 C 102.152344 -95.238281 102.191406 -95.300781 102.21875 -95.378906 C 102.199219 -95.328125 102.191406 -95.203125 102.191406 -95.003906 L 102.191406 -39.757812 C 102.191406 -33.207031 100.351562 -27.25 96.667969 -21.890625 C 93.101562 -16.695312 88.300781 -12.648438 82.265625 -9.746094 C 76.394531 -6.917969 69.875 -5.507812 62.714844 -5.507812 C 50.910156 -5.507812 41.257812 -9.03125 33.75 -16.082031 C 26.121094 -23.25 22.304688 -33.382812 22.304688 -46.476562 L 22.304688 -95.003906 C 22.304688 -95.0625 22.304688 -95.09375 22.300781 -95.09375 C 22.304688 -95.089844 22.324219 -95.082031 22.359375 -95.070312 C 22.308594 -95.089844 22.199219 -95.097656 22.023438 -95.097656 C 21.964844 -95.097656 21.9375 -95.097656 21.933594 -95.09375 C 21.933594 -95.09375 21.929688 -95.0625 21.929688 -95.003906 L 21.929688 -46.476562 C 21.929688 -37.730469 23.628906 -30.3125 27.019531 -24.214844 C 30.332031 -18.265625 34.894531 -13.746094 40.707031 -10.660156 C 46.710938 -7.472656 53.546875 -5.878906 61.222656 -5.878906 C 67.070312 -5.878906 72.464844 -6.984375 77.402344 -9.191406 C 82.339844 -11.394531 86.527344 -14.425781 89.96875 -18.285156 L 102.191406 -31.988281 L 102.191406 -7.28125 C 102.191406 -7.066406 102.207031 -6.921875 102.234375 -6.84375 C 102.226562 -6.867188 102.21875 -6.878906 102.214844 -6.886719 C 102.167969 -6.933594 102.101562 -6.976562 102.015625 -7.011719 L 102.003906 -7.019531 C 102.078125 -7.003906 102.167969 -7 102.285156 -7 C 102.457031 -7 102.570312 -7.007812 102.617188 -7.027344 C 102.582031 -7.015625 102.566406 -7.007812 102.5625 -7.003906 C 102.558594 -7 102.550781 -6.980469 102.535156 -6.945312 C 102.554688 -6.992188 102.5625 -7.105469 102.5625 -7.28125 L 102.5625 -95.003906 C 102.5625 -95.121094 102.558594 -95.210938 102.546875 -95.28125 L 102.550781 -95.273438 C 102.585938 -95.1875 102.628906 -95.121094 102.675781 -95.074219 C 102.683594 -95.070312 102.695312 -95.0625 102.71875 -95.054688 C 102.640625 -95.082031 102.496094 -95.097656 102.285156 -95.097656 Z M 102.285156 -95.097656 "/></g></g></g><g fill="#bfa98e" fill-opacity="1"><g transform="translate(302.207815, 163.990909)"><g><path d="M 121.617188 -98.898438 C 121.980469 -97.804688 122.164062 -96.507812 122.164062 -95.003906 L 122.164062 -51.140625 C 122.164062 -40.199219 119.585938 -30.207031 114.429688 -21.171875 C 109.261719 -12.105469 102.175781 -4.984375 93.171875 0.1875 C 84.191406 5.351562 74.226562 7.933594 63.273438 7.933594 C 52.324219 7.933594 42.355469 5.351562 33.375 0.1875 C 24.375 -4.984375 17.289062 -12.105469 12.117188 -21.171875 C 6.964844 -30.207031 4.386719 -40.199219 4.386719 -51.140625 C 4.386719 -62.0625 6.890625 -72.003906 11.902344 -80.96875 C 16.933594 -89.964844 23.8125 -97.054688 32.542969 -102.238281 C 41.296875 -107.433594 51.042969 -110.03125 61.78125 -110.03125 C 70.988281 -110.03125 79.453125 -108.066406 87.167969 -104.136719 C 94.882812 -100.207031 101.246094 -94.804688 106.261719 -87.929688 L 100.605469 -83.804688 L 93.605469 -83.804688 L 93.605469 -138.496094 C 93.605469 -142.542969 94.972656 -145.933594 97.707031 -148.667969 C 100.445312 -151.40625 103.835938 -152.773438 107.882812 -152.773438 C 111.996094 -152.773438 115.394531 -151.367188 118.078125 -148.554688 C 120.675781 -145.832031 121.976562 -142.480469 121.976562 -138.496094 L 121.976562 -96.683594 L 114.976562 -96.683594 Z M 107.976562 -95.546875 L 107.976562 -138.496094 C 107.976562 -138.707031 107.960938 -138.851562 107.933594 -138.929688 C 107.941406 -138.90625 107.949219 -138.894531 107.953125 -138.886719 C 108 -138.839844 108.066406 -138.796875 108.152344 -138.761719 L 108.160156 -138.753906 C 108.089844 -138.769531 108 -138.773438 107.882812 -138.773438 C 107.710938 -138.773438 107.597656 -138.765625 107.550781 -138.746094 C 107.585938 -138.757812 107.601562 -138.769531 107.605469 -138.769531 C 107.609375 -138.773438 107.617188 -138.792969 107.632812 -138.828125 C 107.613281 -138.78125 107.605469 -138.667969 107.605469 -138.496094 L 107.605469 -62.328125 L 94.949219 -79.683594 C 91.25 -84.753906 86.539062 -88.746094 80.816406 -91.660156 C 75.09375 -94.574219 68.75 -96.03125 61.78125 -96.03125 C 53.605469 -96.03125 46.242188 -94.085938 39.6875 -90.199219 C 33.117188 -86.296875 27.925781 -80.945312 24.121094 -74.136719 C 20.296875 -67.296875 18.386719 -59.632812 18.386719 -51.140625 C 18.386719 -42.671875 20.347656 -34.996094 24.277344 -28.105469 C 28.191406 -21.242188 33.550781 -15.859375 40.351562 -11.949219 C 47.171875 -8.027344 54.8125 -6.066406 63.273438 -6.066406 C 71.734375 -6.066406 79.375 -8.027344 86.195312 -11.949219 C 93 -15.859375 98.355469 -21.242188 102.269531 -28.105469 C 106.199219 -34.996094 108.164062 -42.671875 108.164062 -51.140625 L 108.164062 -95.003906 C 108.164062 -95.121094 108.164062 -95.1875 108.160156 -95.210938 C 108.183594 -95 108.242188 -94.753906 108.335938 -94.472656 Z M 63.273438 -19.132812 C 69.078125 -19.132812 74.289062 -20.511719 78.90625 -23.273438 C 83.558594 -26.054688 87.230469 -29.855469 89.917969 -34.675781 C 92.625 -39.523438 93.976562 -45.015625 93.976562 -51.140625 C 93.976562 -52.96875 93.933594 -54.234375 93.84375 -54.941406 L 100.789062 -55.808594 L 94.53125 -52.679688 C 93.914062 -53.914062 93.605469 -55.265625 93.605469 -56.742188 L 100.605469 -56.742188 L 93.660156 -55.851562 C 92.636719 -63.839844 89.316406 -70.367188 83.695312 -75.433594 C 78.117188 -80.453125 71.3125 -82.964844 63.273438 -82.964844 C 57.4375 -82.964844 52.171875 -81.601562 47.472656 -78.871094 C 42.792969 -76.15625 39.117188 -72.402344 36.441406 -67.609375 C 33.738281 -62.757812 32.382812 -57.269531 32.382812 -51.140625 C 32.382812 -45.015625 33.738281 -39.523438 36.441406 -34.675781 C 39.125 -29.863281 42.816406 -26.070312 47.519531 -23.289062 C 52.207031 -20.519531 57.457031 -19.132812 63.273438 -19.132812 Z M 63.273438 -5.132812 C 54.90625 -5.132812 47.277344 -7.167969 40.394531 -11.242188 C 33.523438 -15.304688 28.128906 -20.84375 24.21875 -27.855469 C 20.328125 -34.824219 18.386719 -42.585938 18.386719 -51.140625 C 18.386719 -59.695312 20.328125 -67.460938 24.21875 -74.429688 C 28.140625 -81.460938 33.546875 -86.976562 40.441406 -90.980469 C 47.3125 -94.96875 54.925781 -96.964844 63.273438 -96.964844 C 74.898438 -96.964844 84.828125 -93.253906 93.0625 -85.832031 C 101.253906 -78.453125 106.082031 -69.054688 107.546875 -57.632812 L 107.605469 -57.1875 L 107.605469 -56.742188 C 107.605469 -57.46875 107.417969 -58.203125 107.050781 -58.9375 L 107.585938 -57.867188 L 107.738281 -56.675781 C 107.898438 -55.394531 107.976562 -53.546875 107.976562 -51.140625 C 107.976562 -42.585938 106.03125 -34.824219 102.144531 -27.855469 C 98.238281 -20.851562 92.886719 -15.320312 86.089844 -11.257812 C 79.261719 -7.175781 71.65625 -5.132812 63.273438 -5.132812 Z M 63.273438 -5.132812 "/></g></g></g><g fill="#bfa98e" fill-opacity="1"><g transform="translate(434.169406, 163.990909)"><g><path d="M 27.0625 7 C 23.015625 7 19.625 5.632812 16.890625 2.894531 C 14.152344 0.160156 12.785156 -3.230469 12.785156 -7.28125 L 12.785156 -94.816406 C 12.785156 -98.867188 14.152344 -102.257812 16.890625 -104.992188 C 19.625 -107.730469 23.015625 -109.097656 27.0625 -109.097656 C 31.175781 -109.097656 34.574219 -107.691406 37.261719 -104.878906 C 39.859375 -102.15625 41.15625 -98.804688 41.15625 -94.816406 L 41.15625 -7.28125 C 41.15625 -3.292969 39.859375 0.0585938 37.261719 2.78125 C 34.574219 5.59375 31.175781 7 27.0625 7 Z M 27.0625 -7 C 27.179688 -7 27.273438 -7.003906 27.34375 -7.019531 L 27.335938 -7.011719 C 27.246094 -6.976562 27.179688 -6.933594 27.132812 -6.886719 C 27.128906 -6.878906 27.121094 -6.867188 27.113281 -6.84375 C 27.144531 -6.921875 27.15625 -7.066406 27.15625 -7.28125 L 27.15625 -94.816406 C 27.15625 -95.03125 27.144531 -95.175781 27.113281 -95.253906 C 27.121094 -95.230469 27.128906 -95.21875 27.132812 -95.210938 C 27.179688 -95.160156 27.246094 -95.121094 27.335938 -95.085938 L 27.34375 -95.078125 C 27.273438 -95.089844 27.179688 -95.097656 27.0625 -95.097656 C 26.890625 -95.097656 26.777344 -95.089844 26.730469 -95.070312 C 26.765625 -95.082031 26.785156 -95.089844 26.789062 -95.09375 C 26.789062 -95.097656 26.800781 -95.117188 26.8125 -95.152344 C 26.792969 -95.101562 26.785156 -94.992188 26.785156 -94.816406 L 26.785156 -7.28125 C 26.785156 -7.105469 26.792969 -6.996094 26.8125 -6.945312 C 26.800781 -6.980469 26.789062 -7 26.789062 -7.003906 C 26.785156 -7.007812 26.765625 -7.015625 26.730469 -7.027344 C 26.777344 -7.007812 26.890625 -7 27.0625 -7 Z M 26.878906 -114.507812 C 22.039062 -114.507812 17.96875 -116.214844 14.664062 -119.625 C 11.421875 -122.972656 9.800781 -127.023438 9.800781 -131.773438 C 9.800781 -136.78125 11.53125 -140.910156 14.996094 -144.160156 C 18.335938 -147.289062 22.355469 -148.851562 27.0625 -148.851562 C 31.648438 -148.851562 35.605469 -147.289062 38.945312 -144.160156 C 42.410156 -140.910156 44.144531 -136.78125 44.144531 -131.773438 C 44.144531 -126.980469 42.464844 -122.902344 39.105469 -119.546875 C 35.75 -116.1875 31.671875 -114.507812 26.878906 -114.507812 Z M 26.878906 -128.507812 C 27.808594 -128.507812 28.582031 -128.820312 29.207031 -129.445312 C 29.832031 -130.070312 30.144531 -130.847656 30.144531 -131.773438 C 30.144531 -132.738281 29.886719 -133.464844 29.371094 -133.949219 C 28.726562 -134.550781 27.957031 -134.855469 27.0625 -134.855469 C 26.046875 -134.855469 25.21875 -134.550781 24.570312 -133.949219 C 24.054688 -133.464844 23.796875 -132.738281 23.796875 -131.773438 C 23.796875 -130.800781 24.105469 -130 24.71875 -129.367188 C 25.273438 -128.792969 25.992188 -128.507812 26.878906 -128.507812 Z M 26.878906 -128.507812 "/></g></g></g><g fill="#bfa98e" fill-opacity="1"><g transform="translate(488.111311, 163.990909)"><g><path d="M 63.273438 7.933594 C 52.214844 7.933594 42.195312 5.390625 33.226562 0.304688 C 24.203125 -4.8125 17.132812 -11.882812 12.015625 -20.90625 C 6.929688 -29.878906 4.386719 -39.894531 4.386719 -50.957031 C 4.386719 -62.007812 6.925781 -72.046875 12.003906 -81.078125 C 17.121094 -90.171875 24.195312 -97.28125 33.226562 -102.398438 C 42.195312 -107.488281 52.214844 -110.03125 63.273438 -110.03125 C 74.34375 -110.03125 84.335938 -107.484375 93.25 -102.386719 C 102.199219 -97.277344 109.257812 -90.183594 114.429688 -81.113281 C 119.585938 -72.074219 122.164062 -62.023438 122.164062 -50.957031 C 122.164062 -39.894531 119.621094 -29.878906 114.53125 -20.90625 C 109.417969 -11.882812 102.347656 -4.8125 93.324219 0.304688 C 84.351562 5.390625 74.335938 7.933594 63.273438 7.933594 Z M 63.273438 -6.066406 C 71.875 -6.066406 79.589844 -8.003906 86.417969 -11.875 C 93.199219 -15.71875 98.511719 -21.03125 102.355469 -27.808594 C 106.226562 -34.640625 108.164062 -42.355469 108.164062 -50.957031 C 108.164062 -59.546875 106.199219 -67.289062 102.269531 -74.179688 C 98.359375 -81.035156 93.039062 -86.386719 86.304688 -90.234375 C 79.542969 -94.097656 71.867188 -96.03125 63.273438 -96.03125 C 54.675781 -96.03125 46.960938 -94.09375 40.128906 -90.222656 C 33.355469 -86.382812 28.046875 -81.046875 24.207031 -74.214844 C 20.324219 -67.316406 18.386719 -59.5625 18.386719 -50.957031 C 18.386719 -42.355469 20.320312 -34.640625 24.195312 -27.808594 C 28.039062 -21.03125 33.347656 -15.71875 40.128906 -11.875 C 46.960938 -8.003906 54.675781 -6.066406 63.273438 -6.066406 Z M 63.273438 -19.132812 C 69.222656 -19.132812 74.511719 -20.492188 79.144531 -23.207031 C 83.753906 -25.914062 87.367188 -29.660156 89.984375 -34.4375 C 92.648438 -39.300781 93.976562 -44.808594 93.976562 -50.957031 C 93.976562 -57.226562 92.648438 -62.796875 89.984375 -67.660156 C 87.367188 -72.4375 83.753906 -76.183594 79.144531 -78.890625 C 74.511719 -81.605469 69.222656 -82.964844 63.273438 -82.964844 C 57.4375 -82.964844 52.171875 -81.601562 47.472656 -78.871094 C 42.792969 -76.15625 39.117188 -72.402344 36.441406 -67.609375 C 33.738281 -62.757812 32.382812 -57.207031 32.382812 -50.957031 C 32.382812 -44.828125 33.738281 -39.339844 36.441406 -34.488281 C 39.117188 -29.695312 42.792969 -25.941406 47.472656 -23.226562 C 52.171875 -20.496094 57.4375 -19.132812 63.273438 -19.132812 Z M 63.273438 -5.132812 C 54.925781 -5.132812 47.3125 -7.128906 40.441406 -11.117188 C 33.546875 -15.121094 28.140625 -20.636719 24.21875 -27.667969 C 20.328125 -34.636719 18.386719 -42.398438 18.386719 -50.957031 C 18.386719 -59.636719 20.328125 -67.460938 24.21875 -74.429688 C 28.140625 -81.460938 33.546875 -86.976562 40.441406 -90.980469 C 47.3125 -94.96875 54.925781 -96.964844 63.273438 -96.964844 C 71.757812 -96.964844 79.410156 -94.964844 86.230469 -90.960938 C 93.066406 -86.949219 98.410156 -81.421875 102.265625 -74.382812 C 106.074219 -67.421875 107.976562 -59.613281 107.976562 -50.957031 C 107.976562 -42.421875 106.074219 -34.675781 102.265625 -27.714844 C 98.410156 -20.675781 93.066406 -15.148438 86.230469 -11.136719 C 79.410156 -7.132812 71.757812 -5.132812 63.273438 -5.132812 Z M 63.273438 -5.132812 "/></g></g></g><g fill="#bfa98e" fill-opacity="1"><g transform="translate(0.207992, 163.990909)"><g><path d="M 52.453125 0.9375 C 44.734375 0.9375 37.328125 -0.367188 30.234375 -2.984375 C 23.140625 -5.597656 17.414062 -9.269531 13.0625 -14 C 11.820312 -15.488281 11.203125 -16.921875 11.203125 -18.296875 C 11.203125 -20.410156 12.195312 -22.273438 14.1875 -23.890625 C 15.675781 -25.015625 17.234375 -25.578125 18.859375 -25.578125 C 20.972656 -25.578125 22.773438 -24.703125 24.265625 -22.953125 C 27.253906 -19.472656 31.203125 -16.796875 36.109375 -14.921875 C 41.023438 -13.054688 46.472656 -12.125 52.453125 -12.125 C 61.160156 -12.125 67.691406 -13.617188 72.046875 -16.609375 C 76.398438 -19.597656 78.640625 -23.519531 78.765625 -28.375 C 78.765625 -32.851562 76.585938 -36.582031 72.234375 -39.5625 C 67.878906 -42.550781 60.972656 -44.796875 51.515625 -46.296875 C 39.316406 -48.285156 30.203125 -51.734375 24.171875 -56.640625 C 18.140625 -61.554688 15.125 -67.5 15.125 -74.46875 C 15.125 -83.5625 18.640625 -90.59375 25.671875 -95.5625 C 32.703125 -100.539062 41.503906 -103.03125 52.078125 -103.03125 C 60.285156 -103.03125 67.4375 -101.628906 73.53125 -98.828125 C 79.632812 -96.035156 84.550781 -92.148438 88.28125 -87.171875 C 89.28125 -85.546875 89.78125 -84.113281 89.78125 -82.875 C 89.78125 -80.757812 88.785156 -79.078125 86.796875 -77.828125 C 85.921875 -77.210938 84.738281 -76.90625 83.25 -76.90625 C 80.632812 -76.90625 78.457031 -77.835938 76.71875 -79.703125 C 70.613281 -86.671875 62.273438 -90.15625 51.703125 -90.15625 C 44.859375 -90.15625 39.382812 -88.753906 35.28125 -85.953125 C 31.175781 -83.148438 29.125 -79.632812 29.125 -75.40625 C 29.125 -70.925781 31.050781 -67.347656 34.90625 -64.671875 C 38.757812 -61.992188 45.601562 -59.847656 55.4375 -58.234375 C 68.75 -55.992188 78.265625 -52.351562 83.984375 -47.3125 C 89.710938 -42.269531 92.578125 -36.019531 92.578125 -28.5625 C 92.578125 -22.832031 90.863281 -17.726562 87.4375 -13.25 C 84.019531 -8.769531 79.257812 -5.285156 73.15625 -2.796875 C 67.0625 -0.304688 60.160156 0.9375 52.453125 0.9375 Z M 52.453125 0.9375 "/></g></g></g><g fill="#bfa98e" fill-opacity="1"><g transform="translate(100.812373, 163.990909)"><g><path d="M 61.78125 -14.375 C 63.769531 -14.375 65.382812 -13.6875 66.625 -12.3125 C 67.875 -10.945312 68.5 -9.207031 68.5 -7.09375 C 68.5 -5.101562 67.75 -3.421875 66.25 -2.046875 C 64.757812 -0.679688 62.894531 0 60.65625 0 L 56.75 0 C 50.144531 0 44.226562 -1.582031 39 -4.75 C 33.78125 -7.925781 29.707031 -12.222656 26.78125 -17.640625 C 23.863281 -23.054688 22.40625 -29.1875 22.40625 -36.03125 L 22.40625 -85.859375 L 10.265625 -85.859375 C 8.273438 -85.859375 6.6875 -86.445312 5.5 -87.625 C 4.320312 -88.8125 3.734375 -90.273438 3.734375 -92.015625 C 3.734375 -93.890625 4.320312 -95.414062 5.5 -96.59375 C 6.6875 -97.78125 8.273438 -98.375 10.265625 -98.375 L 22.40625 -98.375 L 22.40625 -127.296875 C 22.40625 -129.410156 23.054688 -131.148438 24.359375 -132.515625 C 25.660156 -133.890625 27.367188 -134.578125 29.484375 -134.578125 C 31.609375 -134.578125 33.351562 -133.890625 34.71875 -132.515625 C 36.082031 -131.148438 36.765625 -129.410156 36.765625 -127.296875 L 36.765625 -98.375 L 57.859375 -98.375 C 59.847656 -98.375 61.429688 -97.78125 62.609375 -96.59375 C 63.796875 -95.414062 64.390625 -93.890625 64.390625 -92.015625 C 64.390625 -90.273438 63.796875 -88.8125 62.609375 -87.625 C 61.429688 -86.445312 59.847656 -85.859375 57.859375 -85.859375 L 36.765625 -85.859375 L 36.765625 -36.03125 C 36.765625 -29.675781 38.628906 -24.476562 42.359375 -20.4375 C 46.097656 -16.394531 50.894531 -14.375 56.75 -14.375 Z M 61.78125 -14.375 "/></g></g></g><g fill="#bfa98e" fill-opacity="1"><g transform="translate(175.845713, 163.990909)"><g><path d="M 102.28125 -102.09375 C 104.394531 -102.09375 106.132812 -101.441406 107.5 -100.140625 C 108.875 -98.835938 109.5625 -97.128906 109.5625 -95.015625 L 109.5625 -7.28125 C 109.5625 -5.164062 108.875 -3.421875 107.5 -2.046875 C 106.132812 -0.679688 104.394531 0 102.28125 0 C 100.164062 0 98.453125 -0.679688 97.140625 -2.046875 C 95.835938 -3.421875 95.1875 -5.164062 95.1875 -7.28125 L 95.1875 -13.625 C 91.082031 -9.019531 86.101562 -5.410156 80.25 -2.796875 C 74.40625 -0.179688 68.0625 1.125 61.21875 1.125 C 52.382812 1.125 44.453125 -0.738281 37.421875 -4.46875 C 30.390625 -8.207031 24.882812 -13.65625 20.90625 -20.8125 C 16.925781 -27.96875 14.9375 -36.523438 14.9375 -46.484375 L 14.9375 -95.015625 C 14.9375 -97.003906 15.617188 -98.679688 16.984375 -100.046875 C 18.347656 -101.410156 20.03125 -102.09375 22.03125 -102.09375 C 24.144531 -102.09375 25.882812 -101.410156 27.25 -100.046875 C 28.625 -98.679688 29.3125 -97.003906 29.3125 -95.015625 L 29.3125 -46.484375 C 29.3125 -35.398438 32.390625 -26.960938 38.546875 -21.171875 C 44.703125 -15.390625 52.757812 -12.5 62.71875 -12.5 C 68.8125 -12.5 74.316406 -13.679688 79.234375 -16.046875 C 84.148438 -18.410156 88.035156 -21.675781 90.890625 -25.84375 C 93.753906 -30.019531 95.1875 -34.65625 95.1875 -39.75 L 95.1875 -95.015625 C 95.1875 -97.128906 95.835938 -98.835938 97.140625 -100.140625 C 98.453125 -101.441406 100.164062 -102.09375 102.28125 -102.09375 Z M 102.28125 -102.09375 "/></g></g></g><g fill="#bfa98e" fill-opacity="1"><g transform="translate(302.207815, 163.990909)"><g><path d="M 114.984375 -96.6875 C 115.109375 -96.3125 115.171875 -95.753906 115.171875 -95.015625 L 115.171875 -51.140625 C 115.171875 -41.429688 112.898438 -32.59375 108.359375 -24.625 C 103.816406 -16.664062 97.59375 -10.414062 89.6875 -5.875 C 81.78125 -1.332031 72.976562 0.9375 63.28125 0.9375 C 53.570312 0.9375 44.765625 -1.332031 36.859375 -5.875 C 28.960938 -10.414062 22.742188 -16.664062 18.203125 -24.625 C 13.660156 -32.59375 11.390625 -41.429688 11.390625 -51.140625 C 11.390625 -60.847656 13.597656 -69.648438 18.015625 -77.546875 C 22.429688 -85.453125 28.460938 -91.675781 36.109375 -96.21875 C 43.765625 -100.757812 52.320312 -103.03125 61.78125 -103.03125 C 69.875 -103.03125 77.28125 -101.316406 84 -97.890625 C 90.71875 -94.472656 96.253906 -89.78125 100.609375 -83.8125 L 100.609375 -138.5 C 100.609375 -140.613281 101.289062 -142.351562 102.65625 -143.71875 C 104.03125 -145.09375 105.773438 -145.78125 107.890625 -145.78125 C 110.003906 -145.78125 111.710938 -145.09375 113.015625 -143.71875 C 114.328125 -142.351562 114.984375 -140.613281 114.984375 -138.5 Z M 63.28125 -12.125 C 70.375 -12.125 76.78125 -13.835938 82.5 -17.265625 C 88.226562 -20.691406 92.738281 -25.359375 96.03125 -31.265625 C 99.332031 -37.171875 100.984375 -43.796875 100.984375 -51.140625 C 100.984375 -53.253906 100.921875 -54.8125 100.796875 -55.8125 C 100.671875 -56.0625 100.609375 -56.375 100.609375 -56.75 C 99.359375 -66.445312 95.28125 -74.40625 88.375 -80.625 C 81.46875 -86.851562 73.101562 -89.96875 63.28125 -89.96875 C 56.1875 -89.96875 49.742188 -88.285156 43.953125 -84.921875 C 38.171875 -81.566406 33.628906 -76.929688 30.328125 -71.015625 C 27.035156 -65.109375 25.390625 -58.484375 25.390625 -51.140625 C 25.390625 -43.796875 27.035156 -37.171875 30.328125 -31.265625 C 33.628906 -25.359375 38.171875 -20.691406 43.953125 -17.265625 C 49.742188 -13.835938 56.1875 -12.125 63.28125 -12.125 Z M 63.28125 -12.125 "/></g></g></g><g fill="#bfa98e" fill-opacity="1"><g transform="translate(434.169406, 163.990909)"><g><path d="M 27.0625 0 C 24.945312 0 23.203125 -0.679688 21.828125 -2.046875 C 20.460938 -3.421875 19.78125 -5.164062 19.78125 -7.28125 L 19.78125 -94.828125 C 19.78125 -96.941406 20.460938 -98.679688 21.828125 -100.046875 C 23.203125 -101.410156 24.945312 -102.09375 27.0625 -102.09375 C 29.175781 -102.09375 30.882812 -101.410156 32.1875 -100.046875 C 33.5 -98.679688 34.15625 -96.941406 34.15625 -94.828125 L 34.15625 -7.28125 C 34.15625 -5.164062 33.5 -3.421875 32.1875 -2.046875 C 30.882812 -0.679688 29.175781 0 27.0625 0 Z M 26.875 -121.515625 C 24.007812 -121.515625 21.613281 -122.507812 19.6875 -124.5 C 17.757812 -126.488281 16.796875 -128.914062 16.796875 -131.78125 C 16.796875 -134.769531 17.789062 -137.195312 19.78125 -139.0625 C 21.769531 -140.925781 24.195312 -141.859375 27.0625 -141.859375 C 29.800781 -141.859375 32.164062 -140.925781 34.15625 -139.0625 C 36.144531 -137.195312 37.140625 -134.769531 37.140625 -131.78125 C 37.140625 -128.914062 36.144531 -126.488281 34.15625 -124.5 C 32.164062 -122.507812 29.738281 -121.515625 26.875 -121.515625 Z M 26.875 -121.515625 "/></g></g></g><g fill="#bfa98e" fill-opacity="1"><g transform="translate(488.111311, 163.990909)"><g><path d="M 63.28125 0.9375 C 53.445312 0.9375 44.578125 -1.300781 36.671875 -5.78125 C 28.773438 -10.257812 22.585938 -16.453125 18.109375 -24.359375 C 13.628906 -32.265625 11.390625 -41.128906 11.390625 -50.953125 C 11.390625 -60.785156 13.628906 -69.679688 18.109375 -77.640625 C 22.585938 -85.609375 28.773438 -91.832031 36.671875 -96.3125 C 44.578125 -100.789062 53.445312 -103.03125 63.28125 -103.03125 C 73.101562 -103.03125 81.9375 -100.789062 89.78125 -96.3125 C 97.625 -91.832031 103.816406 -85.609375 108.359375 -77.640625 C 112.898438 -69.679688 115.171875 -60.785156 115.171875 -50.953125 C 115.171875 -41.128906 112.929688 -32.265625 108.453125 -24.359375 C 103.972656 -16.453125 97.78125 -10.257812 89.875 -5.78125 C 81.96875 -1.300781 73.101562 0.9375 63.28125 0.9375 Z M 63.28125 -12.125 C 70.5 -12.125 76.96875 -13.804688 82.6875 -17.171875 C 88.414062 -20.535156 92.894531 -25.171875 96.125 -31.078125 C 99.363281 -36.984375 100.984375 -43.609375 100.984375 -50.953125 C 100.984375 -58.421875 99.363281 -65.109375 96.125 -71.015625 C 92.894531 -76.929688 88.414062 -81.566406 82.6875 -84.921875 C 76.96875 -88.285156 70.5 -89.96875 63.28125 -89.96875 C 56.1875 -89.96875 49.742188 -88.285156 43.953125 -84.921875 C 38.171875 -81.566406 33.628906 -76.929688 30.328125 -71.015625 C 27.035156 -65.109375 25.390625 -58.421875 25.390625 -50.953125 C 25.390625 -43.609375 27.035156 -36.984375 30.328125 -31.078125 C 33.628906 -25.171875 38.171875 -20.535156 43.953125 -17.171875 C 49.742188 -13.804688 56.1875 -12.125 63.28125 -12.125 Z M 63.28125 -12.125 "/></g></g></g></g></g></svg>